<svg width="519" height="54" viewBox="0 0 519 54" fill="none" xmlns="http://www.w3.org/2000/svg">
<path d="M456.826 15.7494C456.826 6.93531 463.892 0 472.599 0C479.63 0 485.577 4.76293 487.614 11.1985C489.653 4.76377 495.601 0.165747 502.631 0.165747C511.34 0.165747 518.399 6.90334 518.399 15.7208C518.399 20.1699 516.596 23.3132 513.694 26.6769L487.6 53.1309L461.535 26.6769C458.631 23.3132 456.826 20.1951 456.826 15.7494Z" fill="#F3F1EC"/>
<path d="M427.53 15.7494C427.53 6.93531 434.539 0 443.175 0C450.149 0 456.049 4.76293 458.07 11.1985C460.092 4.76377 465.992 0.165747 472.965 0.165747C481.604 0.165747 488.606 6.90334 488.606 15.7208C488.606 20.1699 486.817 23.3132 483.939 26.6769L458.055 53.1309L432.201 26.6769C429.32 23.3132 427.53 20.1951 427.53 15.7494Z" fill="#F3F1EC"/>
<path d="M396.744 15.7494C396.744 6.93531 403.638 0 412.135 0C418.995 0 424.799 4.76293 426.787 11.1985C428.776 4.76377 434.58 0.165747 441.44 0.165747C449.938 0.165747 456.826 6.90334 456.826 15.7208C456.826 20.1699 455.067 23.3132 452.236 26.6769L426.772 53.1309L401.338 26.6769C398.505 23.3132 396.744 20.1951 396.744 15.7494Z" fill="#F3F1EC"/>
<path d="M365.958 15.7494C365.958 6.93531 373.023 0 381.73 0C388.761 0 394.708 4.76293 396.745 11.1985C398.784 4.76377 404.732 0.165747 411.763 0.165747C420.471 0.165747 427.53 6.90334 427.53 15.7208C427.53 20.1699 425.727 23.3132 422.826 26.6769L396.731 53.1309L370.666 26.6769C367.762 23.3132 365.958 20.1951 365.958 15.7494Z" fill="#F3F1EC"/>
<path d="M335.172 15.7494C335.172 6.93531 342.237 0 350.944 0C357.975 0 363.922 4.76293 365.959 11.1985C367.998 4.76377 373.946 0.165747 380.976 0.165747C389.685 0.165747 396.744 6.90334 396.744 15.7208C396.744 20.1699 394.941 23.3132 392.04 26.6769L365.945 53.1309L339.88 26.6769C336.976 23.3132 335.172 20.1951 335.172 15.7494Z" fill="#F3F1EC"/>
<path d="M305.875 15.7494C305.875 6.93531 312.77 0 321.266 0C328.127 0 333.93 4.76293 335.918 11.1985C337.908 4.76377 343.711 0.165747 350.572 0.165747C359.07 0.165747 365.958 6.90334 365.958 15.7208C365.958 20.1699 364.199 23.3132 361.367 26.6769L335.904 53.1309L310.47 26.6769C307.636 23.3132 305.875 20.1951 305.875 15.7494Z" fill="#F3F1EC"/>
<path d="M274.096 15.7494C274.096 6.93531 281.105 0 289.741 0C296.715 0 302.615 4.76293 304.635 11.1985C306.658 4.76377 312.557 0.165747 319.531 0.165747C328.17 0.165747 335.172 6.90334 335.172 15.7208C335.172 20.1699 333.383 23.3132 330.505 26.6769L304.621 53.1309L278.766 26.6769C275.886 23.3132 274.096 20.1951 274.096 15.7494Z" fill="#F3F1EC"/>
<path d="M244.303 15.7494C244.303 6.93531 251.369 0 260.075 0C267.106 0 273.053 4.76293 275.091 11.1985C277.13 4.76377 283.077 0.165747 290.108 0.165747C298.816 0.165747 305.875 6.90334 305.875 15.7208C305.875 20.1699 304.072 23.3132 301.171 26.6769L275.076 53.1309L249.011 26.6769C246.107 23.3132 244.303 20.1951 244.303 15.7494Z" fill="#F3F1EC"/>
<path d="M212.524 15.7494C212.524 6.93531 219.589 0 228.296 0C235.327 0 241.274 4.76293 243.312 11.1985C245.35 4.76377 251.298 0.165747 258.329 0.165747C267.037 0.165747 274.096 6.90334 274.096 15.7208C274.096 20.1699 272.293 23.3132 269.392 26.6769L243.297 53.1309L217.232 26.6769C214.328 23.3132 212.524 20.1951 212.524 15.7494Z" fill="#F3F1EC"/>
<path d="M183.227 15.7494C183.227 6.93531 190.236 0 198.873 0C205.847 0 211.746 4.76293 213.767 11.1985C215.789 4.76377 221.689 0.165747 228.663 0.165747C237.301 0.165747 244.303 6.90334 244.303 15.7208C244.303 20.1699 242.515 23.3132 239.637 26.6769L213.752 53.1309L187.898 26.6769C185.017 23.3132 183.227 20.1951 183.227 15.7494Z" fill="#F3F1EC"/>
<path d="M152.441 15.7494C152.441 6.93531 159.336 0 167.832 0C174.693 0 180.496 4.76293 182.484 11.1985C184.474 4.76377 190.277 0.165747 197.138 0.165747C205.636 0.165747 212.524 6.90334 212.524 15.7208C212.524 20.1699 210.765 23.3132 207.933 26.6769L182.47 53.1309L157.036 26.6769C154.202 23.3132 152.441 20.1951 152.441 15.7494Z" fill="#F3F1EC"/>
<path d="M121.655 15.7494C121.655 6.93531 128.721 0 137.427 0C144.458 0 150.406 4.76293 152.443 11.1985C154.482 4.76377 160.429 0.165747 167.46 0.165747C176.168 0.165747 183.227 6.90334 183.227 15.7208C183.227 20.1699 181.424 23.3132 178.523 26.6769L152.428 53.1309L126.363 26.6769C123.459 23.3132 121.655 20.1951 121.655 15.7494Z" fill="#F3F1EC"/>
<path d="M90.8689 15.7494C90.8689 6.93531 97.9346 0 106.641 0C113.672 0 119.62 4.76293 121.657 11.1985C123.696 4.76377 129.643 0.165747 136.674 0.165747C145.382 0.165747 152.441 6.90334 152.441 15.7208C152.441 20.1699 150.638 23.3132 147.737 26.6769L121.642 53.1309L95.5774 26.6769C92.6734 23.3132 90.8689 20.1951 90.8689 15.7494Z" fill="#F3F1EC"/>
<path d="M61.5724 15.7494C61.5724 6.93531 68.4672 0 76.9634 0C83.8239 0 89.6274 4.76293 91.6154 11.1985C93.605 4.76377 99.4085 0.165747 106.269 0.165747C114.767 0.165747 121.655 6.90334 121.655 15.7208C121.655 20.1699 119.896 23.3132 117.065 26.6769L91.6012 53.1309L66.167 26.6769C63.3333 23.3132 61.5724 20.1951 61.5724 15.7494Z" fill="#F3F1EC"/>
<path d="M29.7929 15.7494C29.7929 6.93531 36.8017 0 45.4383 0C52.4122 0 58.3117 4.76293 60.3325 11.1985C62.355 4.76377 68.2545 0.165747 75.2284 0.165747C83.8667 0.165747 90.8687 6.90334 90.8687 15.7208C90.8687 20.1699 89.0804 23.3132 86.2024 26.6769L60.3181 53.1309L34.4634 26.6769C31.5829 23.3132 29.7929 20.1951 29.7929 15.7494Z" fill="#F3F1EC"/>
<path d="M7.62939e-06 15.7494C7.62939e-06 6.93531 7.06573 0 15.7725 0C22.8032 0 28.7506 4.76293 30.7878 11.1985C32.8268 4.76377 38.7742 0.165747 45.8049 0.165747C54.5134 0.165747 61.5723 6.90334 61.5723 15.7208C61.5723 20.1699 59.7695 23.3132 56.8681 26.6769L30.7733 53.1309L4.70849 26.6769C1.80451 23.3132 7.62939e-06 20.1951 7.62939e-06 15.7494Z" fill="#F3F1EC"/>
</svg>
